<svg width="19" height="13" viewBox="0 0 19 13" fill="none" xmlns="http://www.w3.org/2000/svg">
<path fill-rule="evenodd" clip-rule="evenodd" d="M14.3993 10.2625C14.1638 10.4067 14.0897 10.7145 14.2339 10.95C14.378 11.1855 14.6858 11.2596 14.9213 11.1154C15.9195 10.5045 17.2087 9.0905 18.8275 6.85584C18.9704 6.65866 18.9636 6.34109 18.8348 6.14932C16.0951 2.07057 12.9684 -5.17755e-08 9.46782 0C5.96513 1.22908e-07 2.83675 2.07311 0.0958148 6.15685C-0.0316384 6.34674 -0.0327402 6.65353 0.0973216 6.8444C2.87952 10.9274 6.00643 13 9.46782 13C10.8255 13 12.0696 12.7146 13.1936 12.1429C13.5066 11.9837 13.6608 11.6437 13.4717 11.322C13.412 11.2349 13.412 11.2349 13.3767 11.1983C13.3656 11.1869 10.8929 8.58644 10.8929 8.58644L10.5638 8.74699C9.32278 9.35225 7.8261 8.8369 7.22084 7.59593C6.61557 6.35495 7.13092 4.85828 8.3719 4.25301C9.61287 3.64775 11.1095 4.1631 11.7148 5.40407C11.8719 5.72614 11.9564 6.07077 11.9673 6.4203C11.9804 6.84111 11.8863 7.25988 11.6953 7.63546C11.5701 7.88159 11.6681 8.18261 11.9143 8.3078C12.1604 8.43298 12.4614 8.33494 12.5866 8.0888C12.8536 7.5638 12.9852 6.97845 12.9668 6.38913C12.9515 5.89895 12.833 5.41548 12.6136 4.9657C11.7662 3.22834 9.67089 2.50685 7.93353 3.35422C6.19616 4.20159 5.47467 6.29693 6.32204 8.0343C7.11427 9.65859 8.9973 10.3949 10.6588 9.79144L12.2579 11.4732C11.406 11.8242 10.4773 12 9.46782 12C6.43904 12 3.64399 10.1855 1.07299 6.49789C3.60508 2.81297 6.39922 1 9.46782 1C12.5342 1 15.3264 2.81028 17.857 6.4897C16.3873 8.4954 15.2231 9.75829 14.3993 10.2625ZM12.6556 11.8912C12.6542 11.8898 12.6517 11.8874 12.6517 11.8874C12.6546 11.8901 12.6556 11.8912 12.6556 11.8912Z" fill="#002648"/>
</svg>
