<svg width="27" height="28" viewBox="0 0 27 28" fill="none" xmlns="http://www.w3.org/2000/svg">
<path d="M13.3333 23.3236C17.2555 23.3236 20.9111 20.9645 23.4555 16.8815C24.4555 15.2823 24.4555 12.5943 23.4555 10.9952C20.9111 6.91217 17.2555 4.5531 13.3333 4.5531C9.41106 4.5531 5.7555 6.91217 3.21106 10.9952C2.21106 12.5943 2.21106 15.2823 3.21106 16.8815C5.7555 20.9645 9.41106 23.3236 13.3333 23.3236Z" stroke="white" stroke-width="1.5" stroke-linecap="round" stroke-linejoin="round"/>
<path d="M12.7912 16.0286V15.9647C12.7983 15.2864 12.8693 14.7467 13.0043 14.3454C13.1392 13.9441 13.331 13.6192 13.5795 13.3706C13.8281 13.122 14.1264 12.893 14.4744 12.6834C14.6839 12.5556 14.8722 12.4047 15.0391 12.2307C15.206 12.0531 15.3374 11.8489 15.4332 11.6181C15.5327 11.3873 15.5824 11.1316 15.5824 10.8511C15.5824 10.5031 15.5007 10.2012 15.3374 9.94552C15.174 9.68984 14.9556 9.49275 14.6822 9.35426C14.4087 9.21576 14.1051 9.14652 13.7713 9.14652C13.4801 9.14652 13.1996 9.20689 12.9297 9.32763C12.6598 9.44836 12.4343 9.63835 12.2532 9.89758C12.0721 10.1568 11.9673 10.4959 11.9389 10.915H10.5966C10.625 10.3113 10.7812 9.7946 11.0653 9.36491C11.353 8.93522 11.7312 8.60674 12.1999 8.37947C12.6722 8.1522 13.196 8.03856 13.7713 8.03856C14.3963 8.03856 14.9396 8.16285 15.4013 8.41143C15.8665 8.66001 16.2251 9.00092 16.4773 9.43416C16.733 9.8674 16.8608 10.361 16.8608 10.915C16.8608 11.3056 16.8004 11.6589 16.6797 11.975C16.5625 12.291 16.392 12.5734 16.1683 12.8219C15.9482 13.0705 15.6818 13.2907 15.3693 13.4825C15.0568 13.6778 14.8065 13.8837 14.6183 14.1004C14.43 14.3134 14.2933 14.5673 14.2081 14.8621C14.1229 15.1568 14.0767 15.5244 14.0696 15.9647V16.0286H12.7912ZM13.473 19.182C13.2102 19.182 12.9847 19.0879 12.7965 18.8997C12.6083 18.7115 12.5142 18.486 12.5142 18.2232C12.5142 17.9604 12.6083 17.7349 12.7965 17.5467C12.9847 17.3585 13.2102 17.2644 13.473 17.2644C13.7358 17.2644 13.9613 17.3585 14.1495 17.5467C14.3377 17.7349 14.4318 17.9604 14.4318 18.2232C14.4318 18.3972 14.3874 18.557 14.2987 18.7026C14.2134 18.8482 14.098 18.9654 13.9524 19.0542C13.8104 19.1394 13.6506 19.182 13.473 19.182Z" fill="white"/>
</svg>
