<svg width="219" height="173" viewBox="0 0 219 173" fill="none" xmlns="http://www.w3.org/2000/svg">
<g clip-path="url(#clip0_1_44)">
<path d="M46.5819 163.991C46.5119 163.745 46.4101 163.527 46.2827 163.338C46.1533 163.146 45.9962 162.985 45.8116 162.854C45.6291 162.72 45.419 162.619 45.1834 162.545C44.95 162.475 44.6932 162.439 44.4088 162.439C43.8783 162.439 43.4135 162.572 43.0103 162.832C42.6113 163.097 42.3015 163.478 42.0787 163.98C41.8559 164.477 41.7455 165.089 41.7455 165.809C41.7455 166.529 41.8559 167.143 42.0744 167.649C42.293 168.153 42.605 168.538 43.0061 168.807C43.4072 169.067 43.8825 169.201 44.4279 169.201C44.9245 169.201 45.349 169.114 45.6991 168.938C46.0535 168.758 46.323 168.508 46.5098 168.185C46.6987 167.863 46.792 167.482 46.792 167.039L47.2377 167.105H44.5638V165.458H48.9036V166.762C48.9036 167.672 48.7105 168.453 48.3264 169.105C47.9423 169.755 47.4117 170.257 46.7369 170.611C46.062 170.96 45.2874 171.136 44.4173 171.136C43.4454 171.136 42.5901 170.92 41.8537 170.494C41.1173 170.062 40.5443 169.453 40.1305 168.659C39.7231 167.865 39.5172 166.923 39.5172 165.83C39.5172 164.992 39.6382 164.242 39.8822 163.584C40.1284 162.926 40.4722 162.367 40.9157 161.907C41.3571 161.45 41.8728 161.101 42.4607 160.864C43.0485 160.624 43.6852 160.504 44.3706 160.504C44.9585 160.504 45.506 160.59 46.0111 160.76C46.5162 160.929 46.9661 161.168 47.3587 161.48C47.7534 161.789 48.076 162.157 48.3264 162.583C48.5768 163.008 48.736 163.476 48.8081 163.988L46.5819 163.991ZM54.0584 171.144C53.2583 171.144 52.5686 170.981 51.9914 170.659C51.4163 170.333 50.9749 169.872 50.665 169.275C50.3552 168.676 50.1981 167.969 50.1981 167.149C50.1981 166.351 50.3531 165.648 50.665 165.047C50.977 164.446 51.4142 163.974 51.9765 163.637C52.5431 163.3 53.2095 163.131 53.9714 163.131C54.4849 163.131 54.9624 163.214 55.4038 163.379C55.8495 163.54 56.2379 163.783 56.5689 164.113C56.9021 164.439 57.1631 164.852 57.3478 165.345C57.5345 165.837 57.6258 166.415 57.6258 167.073V167.664H51.0555V166.33H55.5948C55.5948 166.021 55.5269 165.746 55.3932 165.506C55.2574 165.267 55.0707 165.079 54.8309 164.943C54.5953 164.806 54.3194 164.736 54.0053 164.736C53.6785 164.736 53.3878 164.81 53.1331 164.962C52.8827 165.11 52.6875 165.309 52.5453 165.561C52.4052 165.811 52.3309 166.091 52.3267 166.398V167.668C52.3267 168.051 52.3988 168.384 52.5389 168.663C52.6853 168.942 52.8891 169.156 53.1522 169.311C53.4154 169.461 53.7273 169.537 54.0881 169.537C54.3279 169.537 54.5486 169.503 54.7481 169.436C54.9476 169.368 55.1174 169.268 55.2595 169.131C55.4017 168.997 55.51 168.83 55.5842 168.635L57.5791 168.769C57.4772 169.249 57.2692 169.666 56.9573 170.022C56.6474 170.378 56.2442 170.653 55.7519 170.852C55.2659 171.049 54.7014 171.144 54.0584 171.144ZM63.1774 163.233V164.85H58.4916V163.233H63.1774ZM59.5548 161.372H61.7131V168.608C61.7131 168.807 61.7428 168.961 61.8043 169.074C61.8659 169.182 61.9487 169.258 62.0569 169.3C62.1694 169.345 62.2967 169.364 62.4431 169.364C62.545 169.364 62.6447 169.355 62.7466 169.338C62.8485 169.317 62.9249 169.304 62.98 169.294L63.3196 170.897C63.2113 170.933 63.0586 170.969 62.8633 171.015C62.6681 171.062 62.4283 171.089 62.1481 171.1C61.6282 171.119 61.1741 171.053 60.7815 170.89C60.3931 170.734 60.0896 170.488 59.8753 170.153C59.6588 169.819 59.5527 169.4 59.557 168.89L59.5548 161.372ZM72.0226 163.233V164.85H67.3369V163.233H72.0226ZM68.4001 161.372H70.5583V168.608C70.5583 168.807 70.588 168.961 70.6496 169.074C70.7111 169.182 70.7939 169.258 70.9021 169.3C71.0146 169.345 71.1419 169.364 71.2884 169.364C71.3881 169.364 71.49 169.355 71.5918 169.338C71.6937 169.317 71.7701 169.304 71.8253 169.294L72.1648 170.897C72.0566 170.933 71.9059 170.969 71.7086 171.015C71.5133 171.06 71.2756 171.089 70.9955 171.1C70.4756 171.119 70.0193 171.053 69.6267 170.89C69.2383 170.734 68.937 170.488 68.7205 170.153C68.5041 169.819 68.398 169.4 68.4001 168.89V161.372ZM76.8591 171.144C76.0718 171.144 75.3927 170.977 74.8175 170.645C74.2467 170.308 73.8053 169.84 73.4954 169.241C73.1856 168.638 73.0285 167.939 73.0285 167.143C73.0285 166.343 73.1835 165.64 73.4954 165.041C73.8053 164.439 74.2467 163.969 74.8175 163.637C75.3927 163.3 76.0718 163.131 76.8591 163.131C77.6464 163.131 78.3234 163.3 78.8943 163.637C79.4694 163.969 79.9108 164.439 80.2206 165.041C80.5305 165.64 80.6875 166.343 80.6875 167.143C80.6875 167.939 80.5326 168.638 80.2206 169.241C79.9108 169.84 79.4694 170.308 78.8943 170.645C78.3234 170.977 77.6464 171.144 76.8591 171.144ZM76.8676 169.476C77.2262 169.476 77.5255 169.376 77.7653 169.173C78.0051 168.966 78.1854 168.688 78.3064 168.335C78.4316 167.981 78.4932 167.579 78.4932 167.128C78.4932 166.677 78.4316 166.275 78.3064 165.921C78.1833 165.566 78.0029 165.288 77.7653 165.083C77.5255 164.875 77.2262 164.774 76.8676 164.774C76.5068 164.774 76.2033 164.875 75.9572 165.083C75.7131 165.29 75.5285 165.568 75.4054 165.921C75.2823 166.275 75.2229 166.677 75.2229 167.128C75.2229 167.579 75.2823 167.981 75.4054 168.335C75.5306 168.688 75.7152 168.968 75.9572 169.173C76.2033 169.376 76.5068 169.476 76.8676 169.476ZM89.5306 163.233V164.85H84.8448V163.233H89.5306ZM85.9081 161.372H88.0663V168.608C88.0663 168.807 88.096 168.961 88.1576 169.074C88.2191 169.182 88.3019 169.258 88.4101 169.3C88.5226 169.345 88.6499 169.364 88.7963 169.364C88.8961 169.364 88.998 169.355 89.0998 169.338C89.2017 169.317 89.2781 169.304 89.3333 169.294L89.6728 170.897C89.5646 170.933 89.4118 170.969 89.2165 171.015C89.0213 171.062 88.7836 171.089 88.5035 171.1C87.9835 171.119 87.5273 171.053 87.1347 170.89C86.7463 170.734 86.445 170.488 86.2285 170.153C86.012 169.819 85.9059 169.4 85.9081 168.89V161.372ZM93.2614 166.506V170.994H91.1032V160.643H93.1999V164.6H93.2911C93.4673 164.141 93.7495 163.781 94.1421 163.525C94.5347 163.26 95.0249 163.127 95.6149 163.127C96.1561 163.127 96.6272 163.247 97.0283 163.482C97.4336 163.713 97.7477 164.05 97.9705 164.488C98.1955 164.922 98.308 165.443 98.3037 166.05V170.992H96.1476V166.434C96.1497 165.955 96.0287 165.585 95.7826 165.318C95.5385 165.051 95.199 164.92 94.7597 164.92C94.4668 164.92 94.2058 164.981 93.9808 165.106C93.758 165.231 93.5819 165.413 93.4524 165.652C93.3293 165.887 93.2635 166.173 93.2614 166.506ZM102.223 171.14C101.727 171.14 101.285 171.055 100.897 170.884C100.509 170.708 100.201 170.45 99.976 170.111C99.7532 169.768 99.6407 169.34 99.6407 168.828C99.6407 168.396 99.7192 168.036 99.8784 167.742C100.038 167.448 100.252 167.213 100.526 167.035C100.799 166.855 101.109 166.722 101.457 166.631C101.81 166.54 102.177 166.476 102.561 166.438C103.013 166.391 103.378 166.347 103.656 166.307C103.932 166.262 104.133 166.199 104.259 166.112C104.384 166.029 104.445 165.904 104.445 165.739V165.707C104.445 165.388 104.343 165.138 104.14 164.964C103.94 164.789 103.656 164.7 103.289 164.7C102.9 164.7 102.591 164.787 102.361 164.96C102.132 165.127 101.979 165.341 101.905 165.597L99.9102 165.434C100.012 164.962 100.212 164.556 100.509 164.213C100.806 163.866 101.188 163.599 101.659 163.415C102.132 163.224 102.678 163.129 103.299 163.129C103.732 163.129 104.144 163.18 104.541 163.281C104.94 163.383 105.292 163.537 105.6 163.751C105.91 163.965 106.156 164.236 106.334 164.571C106.512 164.901 106.601 165.297 106.601 165.76V170.996H104.556V169.918H104.496C104.371 170.16 104.203 170.376 103.995 170.562C103.785 170.744 103.535 170.884 103.24 170.99C102.947 171.089 102.607 171.14 102.223 171.14ZM102.841 169.654C103.157 169.654 103.439 169.592 103.681 169.467C103.923 169.338 104.114 169.165 104.254 168.951C104.394 168.737 104.462 168.491 104.462 168.218V167.395C104.394 167.437 104.303 167.477 104.184 167.516C104.07 167.549 103.938 167.581 103.794 167.611C103.649 167.64 103.503 167.664 103.359 167.687C103.214 167.708 103.081 167.727 102.964 167.742C102.709 167.78 102.489 167.837 102.3 167.92C102.111 167.998 101.964 168.11 101.858 168.246C101.752 168.381 101.701 168.551 101.701 168.752C101.701 169.044 101.807 169.268 102.02 169.423C102.236 169.58 102.51 169.654 102.841 169.654ZM112.414 163.233V164.85H107.73V163.233H112.414ZM108.794 161.372H110.952V168.608C110.952 168.807 110.984 168.961 111.043 169.074C111.105 169.182 111.187 169.258 111.296 169.3C111.408 169.345 111.535 169.364 111.682 169.364C111.784 169.364 111.886 169.355 111.988 169.338C112.089 169.317 112.166 169.304 112.221 169.294L112.558 170.897C112.45 170.933 112.299 170.969 112.102 171.015C111.905 171.062 111.669 171.089 111.387 171.1C110.869 171.119 110.413 171.053 110.02 170.89C109.632 170.734 109.331 170.488 109.114 170.153C108.898 169.819 108.792 169.4 108.796 168.89L108.794 161.372ZM119.281 166.506V170.994H117.123V163.233H119.18V164.6H119.271C119.443 164.149 119.731 163.792 120.137 163.529C120.542 163.262 121.032 163.129 121.609 163.129C122.151 163.129 122.622 163.25 123.023 163.485C123.424 163.72 123.738 164.056 123.959 164.494C124.179 164.928 124.292 165.449 124.292 166.053V170.994H122.136V166.436C122.138 165.962 122.015 165.591 121.771 165.326C121.522 165.055 121.183 164.922 120.752 164.922C120.461 164.922 120.205 164.983 119.982 165.108C119.761 165.233 119.591 165.415 119.468 165.655C119.345 165.887 119.284 166.173 119.281 166.506ZM129.542 171.144C128.742 171.144 128.055 170.981 127.473 170.659C126.9 170.333 126.457 169.872 126.147 169.275C125.837 168.676 125.682 167.969 125.682 167.149C125.682 166.351 125.835 165.648 126.147 165.047C126.459 164.446 126.898 163.974 127.46 163.637C128.027 163.3 128.691 163.131 129.453 163.131C129.967 163.131 130.444 163.214 130.888 163.379C131.333 163.54 131.722 163.783 132.053 164.113C132.388 164.439 132.647 164.852 132.832 165.345C133.018 165.837 133.112 166.415 133.112 167.073V167.664H126.541V166.33H131.081C131.081 166.021 131.013 165.746 130.877 165.506C130.743 165.267 130.557 165.079 130.315 164.943C130.079 164.806 129.803 164.736 129.489 164.736C129.162 164.736 128.872 164.81 128.617 164.962C128.367 165.11 128.171 165.309 128.031 165.561C127.889 165.811 127.815 166.091 127.81 166.398V167.668C127.81 168.051 127.883 168.384 128.025 168.663C128.169 168.942 128.375 169.156 128.638 169.311C128.901 169.461 129.213 169.537 129.574 169.537C129.812 169.537 130.032 169.503 130.232 169.436C130.434 169.368 130.603 169.268 130.745 169.131C130.886 168.997 130.994 168.83 131.068 168.635L133.063 168.769C132.961 169.249 132.753 169.666 132.439 170.022C132.129 170.378 131.726 170.653 131.234 170.852C130.748 171.049 130.183 171.144 129.542 171.144ZM136.187 163.233L137.613 165.945L139.077 163.233H141.291L139.037 167.111L141.35 170.994H139.147L137.611 168.309L136.102 170.994H133.874L136.185 167.111L133.954 163.233H136.187ZM146.711 163.233V164.85H142.027V163.233H146.711ZM143.088 161.372H145.248V168.608C145.248 168.807 145.278 168.961 145.34 169.074C145.399 169.182 145.484 169.258 145.592 169.3C145.705 169.345 145.832 169.364 145.978 169.364C146.078 169.364 146.182 169.355 146.282 169.338C146.384 169.317 146.46 169.304 146.513 169.294L146.853 170.897C146.745 170.933 146.594 170.969 146.397 171.015C146.201 171.06 145.964 171.089 145.683 171.1C145.164 171.119 144.707 171.053 144.315 170.89C143.924 170.734 143.625 170.488 143.406 170.153C143.19 169.819 143.086 169.4 143.088 168.89V161.372ZM153.574 160.643V170.994H151.415V160.643H153.574ZM158.847 171.144C158.047 171.144 157.358 170.981 156.78 170.659C156.205 170.333 155.764 169.872 155.454 169.275C155.144 168.676 154.987 167.969 154.987 167.149C154.987 166.351 155.142 165.648 155.454 165.047C155.766 164.446 156.201 163.974 156.763 163.637C157.332 163.3 157.998 163.131 158.76 163.131C159.274 163.131 159.751 163.214 160.195 163.379C160.638 163.54 161.029 163.783 161.36 164.113C161.693 164.439 161.952 164.852 162.139 165.345C162.326 165.837 162.417 166.415 162.417 167.073V167.664H155.847V166.33H160.386C160.386 166.021 160.32 165.746 160.182 165.506C160.049 165.267 159.862 165.079 159.62 164.943C159.384 164.806 159.108 164.736 158.794 164.736C158.467 164.736 158.175 164.81 157.922 164.962C157.674 165.11 157.479 165.309 157.336 165.561C157.194 165.811 157.122 166.091 157.118 166.398V167.668C157.118 168.051 157.188 168.384 157.33 168.663C157.474 168.942 157.68 169.156 157.943 169.311C158.209 169.461 158.518 169.537 158.879 169.537C159.119 169.537 159.34 169.503 159.539 169.436C159.739 169.368 159.908 169.268 160.051 169.131C160.193 168.997 160.301 168.83 160.375 168.635L162.368 168.769C162.268 169.249 162.058 169.666 161.746 170.022C161.436 170.378 161.033 170.653 160.541 170.852C160.057 171.049 159.49 171.144 158.847 171.144ZM170.872 163.233L168.151 170.994H165.719L163 163.233H165.278L166.895 168.786H166.977L168.586 163.233H170.872ZM175.273 171.144C174.473 171.144 173.783 170.981 173.204 170.659C172.631 170.333 172.187 169.872 171.878 169.275C171.568 168.676 171.411 167.969 171.411 167.149C171.411 166.351 171.566 165.648 171.878 165.047C172.189 164.446 172.627 163.974 173.189 163.637C173.756 163.3 174.422 163.131 175.184 163.131C175.697 163.131 176.175 163.214 176.618 163.379C177.062 163.54 177.453 163.783 177.784 164.113C178.117 164.439 178.376 164.852 178.562 165.345C178.749 165.837 178.84 166.415 178.84 167.073V167.664H172.27V166.33H176.809C176.809 166.021 176.744 165.746 176.606 165.506C176.472 165.267 176.285 165.079 176.046 164.943C175.81 164.806 175.532 164.736 175.218 164.736C174.891 164.736 174.6 164.81 174.346 164.962C174.097 165.11 173.902 165.309 173.76 165.561C173.618 165.811 173.546 166.091 173.541 166.398V167.668C173.541 168.051 173.611 168.384 173.754 168.663C173.9 168.942 174.106 169.156 174.367 169.311C174.632 169.461 174.942 169.537 175.303 169.537C175.543 169.537 175.763 169.503 175.963 169.436C176.162 169.368 176.332 169.268 176.474 169.131C176.616 168.997 176.725 168.83 176.799 168.635L178.792 168.769C178.692 169.249 178.484 169.666 178.17 170.022C177.86 170.378 177.457 170.653 176.964 170.852C176.478 171.049 175.912 171.144 175.273 171.144ZM182.408 160.643V170.994H180.25V160.643H182.408Z" fill="#002648"/>
<path d="M4.68164 151.908C55.8623 149.783 69.7243 163.609 93.1829 68.9406C112.374 -0.204332 146.494 2.98827 219.001 2.98827" stroke="#002648" stroke-width="1.0146"/>
<path d="M159.732 90.2133C159.732 112.936 142.118 131.345 120.415 131.345C98.7111 131.345 81.097 112.938 81.097 90.2133C81.097 67.4882 98.7111 49.082 120.415 49.082H164.976V59.3649H146.42C150.647 63.3577 154.007 68.1488 156.296 73.4521C158.584 78.7534 159.754 84.4548 159.732 90.2133ZM120.415 59.3649C104.479 59.3649 91.5827 73.1938 91.5827 90.2133C91.5827 107.231 104.479 121.06 120.415 121.06C136.352 121.06 149.251 107.231 149.251 90.2133C149.251 73.1938 136.352 59.3649 120.415 59.3649Z" fill="#002648"/>
<path d="M44.2306 131.349C37.8323 131.349 32.13 130.252 27.1216 128.061C22.1451 125.87 18.1872 122.821 15.2459 118.924C12.3385 114.992 10.7554 110.43 10.4965 105.239H22.7096C22.9685 108.429 24.0678 111.188 26.0053 113.506C27.945 115.794 30.481 117.566 33.6134 118.826C36.7478 120.084 40.2218 120.712 44.0333 120.712C48.2988 120.712 52.0806 119.969 55.3742 118.487C58.6678 117.005 61.2548 114.941 63.1286 112.299C65.0025 109.655 65.9384 106.593 65.9384 103.111C65.9384 99.4673 65.0344 96.2619 63.2241 93.4885C61.4139 90.6855 58.7654 88.4943 55.2766 86.9149C51.7856 85.3355 47.5221 84.5458 42.482 84.5458H34.5323V73.9095H42.482C46.4228 73.9095 49.8799 73.2002 52.853 71.7818C55.8581 70.3633 58.2009 68.3648 59.8817 65.7861C61.5943 63.2075 62.4495 60.1779 62.4495 56.6973C62.4495 53.346 61.7068 50.4286 60.2191 47.9452C58.7336 45.4639 56.6326 43.5289 53.9184 42.1422C51.2359 40.7555 48.0697 40.0632 44.4174 40.0632C40.9922 40.0632 37.7622 40.692 34.7254 41.9495C31.7204 43.1753 29.265 44.9643 27.3593 47.3164C25.4536 49.6368 24.418 52.4419 24.2567 55.7298H12.6293C12.8224 50.5408 14.3907 45.9953 17.3299 42.0956C20.2691 38.162 24.1145 35.1007 28.866 32.9095C33.6473 30.7161 38.8976 29.6216 44.6169 29.6216C50.7563 29.6216 56.0236 30.8622 60.4165 33.3456C64.8115 35.7951 68.1879 39.0343 70.5457 43.0631C72.9034 47.092 74.0833 51.4427 74.0833 56.1194C74.0833 61.6958 72.6127 66.4488 69.6734 70.3824C66.7661 74.3138 62.8082 77.0386 57.7998 78.5523V79.3251C64.0688 80.3561 68.9625 83.0152 72.4853 87.3045C76.0081 91.5598 77.7674 96.8293 77.7674 103.115C77.7674 108.499 76.2968 113.332 73.3575 117.622C70.448 121.877 66.4753 125.23 61.4351 127.678C56.395 130.123 50.6587 131.349 44.2306 131.349Z" fill="#002648"/>
<path d="M183.52 65.9258V21.6633H191.049V65.9279H183.52V65.9258ZM165.101 47.5514V40.0399H209.47V47.5514H165.101Z" fill="#002648"/>
</g>
<defs>
<clipPath id="clip0_1_44">
<rect width="218.585" height="171.486" fill="white" transform="translate(0.416016 0.756836)"/>
</clipPath>
</defs>
</svg>
