<svg width="25" height="24" viewBox="0 0 25 24" fill="none" xmlns="http://www.w3.org/2000/svg">
<path d="M19.9625 1H5.46177C1 1 1 3.22222 1 7.66667V22.1111C1 22.7222 1.50195 23.2222 2.11544 23.2222L6.72222 19.8889H19.9625C24.4243 19.8889 23.8666 15.4444 23.8666 11V7.66667C23.8666 3.22222 24.4243 1 19.9625 1Z" stroke="white" stroke-width="1.5" stroke-linecap="round" stroke-linejoin="round"/>
<path fill-rule="evenodd" clip-rule="evenodd" d="M13.2248 8.5C13.6557 8.5 14.0051 8.8731 14.0051 9.33333L14.0051 14.3333C14.0051 14.7936 13.6557 15.1667 13.2248 15.1667C12.7938 15.1667 12.4445 14.7936 12.4445 14.3333L12.4445 9.33333C12.4445 8.8731 12.7938 8.5 13.2248 8.5Z" fill="white"/>
<path d="M14.0051 6.83333C14.0051 7.29357 13.6557 7.66667 13.2248 7.66667C12.7938 7.66667 12.4445 7.29357 12.4445 6.83333C12.4445 6.3731 12.7938 6 13.2248 6C13.6557 6 14.0051 6.3731 14.0051 6.83333Z" fill="white"/>
</svg>
