<svg width="40" height="40" viewBox="0 0 40 40" fill="none" xmlns="http://www.w3.org/2000/svg">
<circle cx="20" cy="20" r="20" fill="#0071E3"/>
<rect width="24" height="24" transform="translate(8 8)" fill="#0071E3"/>
<path d="M20.7 11.05L22.77 16.77L28.85 16.97C29.49 16.99 29.76 17.8 29.25 18.2L24.45 21.93L26.14 27.77C26.32 28.39 25.63 28.89 25.1 28.53L20.07 25.12L15.04 28.53C14.51 28.89 13.82 28.39 14 27.77L15.69 21.93L10.87 18.2C10.36 17.81 10.63 16.99 11.27 16.97L17.35 16.77L19.42 11.05C19.63 10.45 20.48 10.45 20.7 11.05Z" stroke="white" stroke-width="1.2" stroke-miterlimit="10" stroke-linecap="round" stroke-linejoin="round"/>
</svg>
