<svg width="22" height="22" viewBox="0 0 22 22" fill="none" xmlns="http://www.w3.org/2000/svg">
<path d="M19.1192 10.1281V5.92163C19.1192 4.26478 17.776 2.92163 16.1192 2.92163H15.0927M9.05296 21.1779H4C2.34315 21.1779 1 19.8348 1 18.1779V5.92163C1 4.26478 2.34315 2.92163 4 2.92163H6.0331" stroke="#0071E3" stroke-width="1.5" stroke-linecap="round"/>
<rect x="6.03311" y="1" width="9.05958" height="3.84343" rx="1" stroke="#0071E3" stroke-width="1.5"/>
<path d="M12.8508 17.9421L17.3947 12.7873C17.9876 12.1147 19.0351 12.0246 19.7342 12.5861V12.5861C20.4333 13.1476 20.5193 14.1481 19.9264 14.8207L15.3825 19.9755L12.4575 20.7325C12.3079 20.7712 12.1705 20.6436 12.2067 20.4995L12.8508 17.9421Z" stroke="#0071E3" stroke-width="1.5"/>
<path d="M16.6026 13.9714L18.6158 15.4127" stroke="#0071E3" stroke-width="1.5" stroke-linecap="round" stroke-linejoin="round"/>
<path d="M5.02649 12.5303H9.05297" stroke="#0071E3" stroke-width="1.5" stroke-linecap="round" stroke-linejoin="round"/>
<path d="M5.02649 8.68677H12.5761" stroke="#0071E3" stroke-width="1.5" stroke-linecap="round" stroke-linejoin="round"/>
</svg>
